.
..............................Site Info...........................

 -   http://www.scenetime.com  *_*   

SceneTime is going to Close sign up on march/1, hurry up! get in before the doors are closed.

     We care to share . Join us on  http://www.scenetime.com 

    Be the first to get new release at  http://www.scenetime.com

        Seed back for speed


...................................NFO:.................................................








































          
          
              
              
                    
                    
                    
                    

Diary.of.a.Cannibal.2007.DVDRiP.AC3-5.1.XviD-SiC

Poster:
[img]http://img4.imageshack.us/img4/2853/diaryofcannibalbig.jpg[/img]

IMDB Link:
http://www.imdb.com/title/tt0826817/

Description:
They met on the Internet. They fell in love. They drove to the desert and stopped at an abandoned warehouse. They wandered inside. Inside they found unspeakable horror. Only one of them survived the ordeal of CANNIBAL. From a hospital bed, an injured Noelle tells shocked police detectives a tale of cannibal terror. In recounting her ordeal, the detectives learn of an even more awful truth behind the actions of this tragic couple. Horror master Ulli Lommel's depraved tale of a modern-day CANNIBAL is based on the real-life case of a man who murdered and consumed his lover -- liver and all! -- in a strange act of consensual love. In Lommel's film of the events, two star-crossed lovers enter a world where madness rules and even a loved one can transform into a flesh-eating cannibal.


General
Complete name                    : Diary.of.a.Cannibal.2007.DVDRiP.AC3-5.1.XviD-SiC.avi
Format                           : AVI
Format/Info                      : Audio Video Interleave
File size                        : 1.37 GiB
Duration                         : 1h 22mn
Overall bit rate                 : 2 391 Kbps

Video
ID                               : 0
Format                           : MPEG-4 Visual
Format profile                   : Simple@L3
Format settings, BVOP            : 2
Format settings, QPel            : No
Format settings, GMC             : No warppoints
Format settings, Matrix          : Default (H.263)
Muxing mode                      : Packed bitstream
Codec ID                         : XVID
Codec ID/Hint                    : XviD
Duration                         : 1h 22mn
Bit rate                         : 2 126 Kbps
Width                            : 720 pixels
Height                           : 384 pixels
Display aspect ratio             : 1.875
Frame rate                       : 29.970 fps
Color space                      : YUV
Chroma subsampling               : 4:2:0
Bit depth                        : 8 bits
Scan type                        : Progressive
Compression mode                 : Lossy
Bits/(Pixel*Frame)               : 0.257
Stream size                      : 1.22 GiB (89%)
Writing library                  : XviD 1.0.3 (UTC 2004-12-20)

Audio
ID                               : 1
Format                           : AC-3
Format/Info                      : Audio Coding 3
Mode extension                   : CM (complete main)
Codec ID                         : 2000
Duration                         : 1h 22mn
Bit rate mode                    : Constant
Bit rate                         : 256 Kbps
Channel(s)                       : 6 channels
Channel positions                : Front: L C R, Side: L R, LFE
Sampling rate                    : 48.0 KHz
Bit depth                        : 16 bits
Compression mode                 : Lossy
Stream size                      : 150 MiB (11%)
Alignment                        : Aligned on interleaves
Interleave, duration             : 64 ms (1.92 video frames)
Interleave, preload duration     : 192 ms
Title                            : VTS_01_1 T80 3_2ch 448Kbps DELAY 0ms_new










Screenshots:
[img]http://img141.imageshack.us/img141/9438/vlcsnap2012022020h03m54.png[/img]
[img]http://img85.imageshack.us/img85/3122/vlcsnap2012022020h03m53.png[/img]
[img]http://img844.imageshack.us/img844/573/vlcsnap2012022020h03m48.png[/img]
[img]http://img822.imageshack.us/img822/9653/vlcsnap2012022020h03m39.png[/img]

Note: 

Source: 

Enjoy!

Respects to T00NG0D, ELEKTRI4KA, PA, YeFsTe, MrRep and everyone in the struggle...RiP MU & BTJ